<svg id="svg" version="1.1" xmlns="http://www.w3.org/2000/svg" xmlns:xlink="http://www.w3.org/1999/xlink" width="400" height="400" viewBox="0, 0, 400,400"><g id="svgg"><path id="path0" d="M150.943 28.591 C 124.009 31.689,101.313 49.865,91.339 76.327 C 85.495 91.831,84.469 116.521,88.800 137.400 C 89.256 139.600,89.985 143.830,90.419 146.800 C 90.852 149.770,91.648 154.450,92.186 157.200 C 92.725 159.950,93.458 164.270,93.817 166.800 C 94.175 169.330,94.819 173.110,95.249 175.200 C 95.678 177.290,96.389 181.490,96.830 184.533 C 97.271 187.576,97.969 191.716,98.382 193.733 C 98.794 195.750,99.427 199.470,99.788 202.000 C 100.148 204.530,100.801 208.490,101.239 210.800 C 101.676 213.110,102.552 218.240,103.186 222.200 C 103.820 226.160,105.173 234.260,106.193 240.200 C 107.213 246.140,108.574 254.150,109.216 258.000 C 111.436 271.310,115.237 282.103,123.288 297.962 C 137.342 325.645,165.852 348.965,192.080 354.231 C 233.474 362.542,265.190 334.133,265.351 288.600 C 265.403 273.848,265.734 275.382,247.604 206.200 C 245.816 199.380,243.743 191.460,242.996 188.600 C 242.249 185.740,239.664 175.840,237.251 166.600 C 234.838 157.360,231.668 145.210,230.208 139.600 C 224.517 117.738,220.467 109.280,211.304 100.117 C 187.867 76.680,155.230 78.237,145.229 103.270 C 141.425 112.792,141.778 118.898,147.816 148.000 C 149.482 156.030,152.084 168.630,153.600 176.000 C 168.588 248.896,167.446 243.816,169.924 248.600 C 177.686 263.589,196.448 262.476,197.129 246.986 C 197.304 243.007,197.087 241.694,193.988 228.000 C 192.917 223.270,190.873 214.180,189.444 207.800 C 188.016 201.420,185.316 189.360,183.444 181.000 C 177.933 156.382,175.658 146.288,173.708 137.800 C 171.449 127.969,171.184 123.138,172.720 119.800 C 176.971 110.565,189.115 111.583,195.911 121.743 C 198.629 125.807,199.199 127.487,202.581 141.400 C 204.186 148.000,208.054 163.930,211.176 176.800 C 214.299 189.670,219.371 210.550,222.448 223.200 C 229.784 253.363,231.145 259.113,231.863 262.975 C 238.459 298.492,213.528 324.832,184.200 313.331 C 162.790 304.934,147.917 287.469,141.667 263.384 C 140.516 258.947,116.719 133.128,115.343 124.200 C 113.905 114.872,115.047 99.555,117.794 91.339 C 129.923 55.057,171.637 44.309,209.200 67.787 C 227.046 78.942,238.311 91.351,247.702 110.200 C 252.785 120.401,253.038 121.150,260.946 149.444 C 264.274 161.350,268.438 176.239,282.802 227.600 C 287.881 245.760,289.060 248.358,294.557 253.501 C 303.467 261.836,312.708 261.288,316.882 252.178 C 318.512 248.623,318.159 243.709,315.679 235.400 C 312.870 225.991,309.394 214.349,306.003 203.000 C 300.785 185.534,295.337 167.243,289.620 148.000 C 277.560 107.401,268.309 89.404,249.336 69.630 C 220.224 39.289,185.145 24.658,150.943 28.591 " stroke="none" fill="#f3f3f3" fill-rule="evenodd"></path><path id="path1" d="M0.000 200.000 L 0.000 400.000 200.000 400.000 L 400.000 400.000 400.000 200.000 L 400.000 0.000 200.000 0.000 L 0.000 0.000 0.000 200.000 M177.039 28.981 C 204.789 32.819,238.950 54.214,258.180 79.800 C 273.402 100.055,278.957 112.105,289.620 148.000 C 295.337 167.243,300.785 185.534,306.003 203.000 C 309.394 214.349,312.870 225.991,315.679 235.400 C 318.159 243.709,318.512 248.623,316.882 252.178 C 312.708 261.288,303.467 261.836,294.557 253.501 C 289.060 248.358,287.881 245.760,282.802 227.600 C 268.438 176.239,264.274 161.350,260.946 149.444 C 253.038 121.150,252.785 120.401,247.702 110.200 C 238.311 91.351,227.046 78.942,209.200 67.787 C 171.637 44.309,129.923 55.057,117.794 91.339 C 115.047 99.555,113.905 114.872,115.343 124.200 C 116.719 133.128,140.516 258.947,141.667 263.384 C 147.917 287.469,162.790 304.934,184.200 313.331 C 213.528 324.832,238.459 298.492,231.863 262.975 C 231.145 259.113,229.784 253.363,222.448 223.200 C 219.371 210.550,214.299 189.670,211.176 176.800 C 197.835 121.816,199.164 126.607,195.911 121.743 C 189.115 111.583,176.971 110.565,172.720 119.800 C 171.184 123.138,171.449 127.969,173.708 137.800 C 175.658 146.288,177.933 156.382,183.444 181.000 C 185.316 189.360,188.016 201.420,189.444 207.800 C 190.873 214.180,192.917 223.270,193.988 228.000 C 197.087 241.694,197.304 243.007,197.129 246.986 C 196.568 259.756,183.466 263.611,173.800 253.851 C 168.677 248.677,168.287 247.430,161.578 214.800 C 158.705 200.830,155.115 183.370,153.600 176.000 C 152.084 168.630,149.482 156.030,147.816 148.000 C 141.778 118.898,141.425 112.792,145.229 103.270 C 155.230 78.237,187.867 76.680,211.304 100.117 C 220.467 109.280,224.517 117.738,230.208 139.600 C 231.668 145.210,234.838 157.360,237.251 166.600 C 239.664 175.840,242.249 185.740,242.996 188.600 C 243.743 191.460,245.816 199.380,247.604 206.200 C 265.734 275.382,265.403 273.848,265.351 288.600 C 265.190 334.133,233.474 362.542,192.080 354.231 C 165.852 348.965,137.342 325.645,123.288 297.962 C 115.237 282.103,111.436 271.310,109.216 258.000 C 108.574 254.150,107.213 246.140,106.193 240.200 C 105.173 234.260,103.820 226.160,103.186 222.200 C 102.552 218.240,101.676 213.110,101.239 210.800 C 100.801 208.490,100.148 204.530,99.788 202.000 C 99.427 199.470,98.794 195.750,98.382 193.733 C 97.969 191.716,97.271 187.576,96.830 184.533 C 96.389 181.490,95.678 177.290,95.249 175.200 C 94.819 173.110,94.175 169.330,93.817 166.800 C 93.458 164.270,92.725 159.950,92.186 157.200 C 91.648 154.450,90.852 149.770,90.419 146.800 C 89.985 143.830,89.256 139.600,88.800 137.400 C 78.415 87.339,96.716 46.145,135.600 32.059 C 146.087 28.260,162.830 27.016,177.039 28.981 " stroke="none" fill="#040404" fill-rule="evenodd"></path></g></svg>